{
	"asset":{
		"generator":"Khronos glTF Blender I/O v4.0.44",
		"version":"2.0"
	},
	"extensionsUsed":[
		"KHR_materials_clearcoat",
		"KHR_materials_specular",
		"KHR_materials_sheen",
		"KHR_materials_ior",
		"KHR_materials_transmission",
		"KHR_materials_emissive_strength"
	],
	"scene":0,
	"scenes":[
		{
			"name":"Scene",
			"nodes":[
				0,
				1,
				2
			]
		}
	],
	"nodes":[
		{
			"mesh":0,
			"name":"rING.010",
			"rotation":[
				0,
				0.019757159054279327,
				0,
				0.9998047947883606
			],
			"scale":[
				6.252137660980225,
				6.252137660980225,
				6.252137660980225
			]
		},
		{
			"mesh":1,
			"name":"rING.009",
			"rotation":[
				0,
				0.019757159054279327,
				0,
				0.9998047947883606
			],
			"scale":[
				5.211012363433838,
				5.211012363433838,
				5.211012363433838
			]
		},
		{
			"mesh":2,
			"name":"rING.069",
			"rotation":[
				0,
				0.019757159054279327,
				0,
				0.9998047947883606
			],
			"scale":[
				6.252137660980225,
				6.252137660980225,
				6.252137660980225
			]
		}
	],
	"materials":[
		{
			"doubleSided":true,
			"extensions":{
				"KHR_materials_clearcoat":{
					"clearcoatFactor":0.6192660331726074,
					"clearcoatRoughnessFactor":0.1807936578989029
				},
				"KHR_materials_specular":{
					"specularColorFactor":[
						2.0,
						2.0,
						2.0
					]
				},
				"KHR_materials_sheen":{
					"sheenColorFactor":[
						1.0,
						1.0,
						1.0
					]
				},
				"KHR_materials_ior":{
					"ior":1.4500000476837158
				}
			},
			"name":"Material",
			"pbrMetallicRoughness":{
				"baseColorFactor":[
					0.909635066986084,
					0.38794904947280884,
					0.059400226920843124,
					1
				],
				"roughnessFactor":0.17795254290103912
			}
		},
		{
			"alphaMode":"BLEND",
			"doubleSided":true,
			"emissiveFactor":[
				0.3699997067451477,
				0.3699997067451477,
				0.3699997067451477
			],
			"emissiveTexture":{
				"index":0
			},
			"extensions":{
				"KHR_materials_transmission":{
					"transmissionFactor":1
				},
				"KHR_materials_specular":{
					"specularColorFactor":[
						2.0,
						2.0,
						2.0
					]
				},
				"KHR_materials_ior":{
					"ior":2.299999952316284
				}
			},
			"name":"Material.003",
			"pbrMetallicRoughness":{
				"baseColorFactor":[
					0.800000011920929,
					0.800000011920929,
					0.800000011920929,
					0.6926605701446533
				],
				"metallicFactor":0,
				"roughnessFactor":0.27889907360076904
			}
		},
		{
			"alphaMode":"BLEND",
			"doubleSided":true,
			"emissiveFactor":[
				1,
				1,
				1
			],
			"emissiveTexture":{
				"index":1
			},
			"extensions":{
				"KHR_materials_transmission":{
					"transmissionFactor":1
				},
				"KHR_materials_emissive_strength":{
					"emissiveStrength":2.169999599456787
				},
				"KHR_materials_specular":{
					"specularColorFactor":[
						2.0,
						2.0,
						2.0
					]
				},
				"KHR_materials_ior":{
					"ior":2.299999952316284
				}
			},
			"name":"Material.001",
			"pbrMetallicRoughness":{
				"baseColorFactor":[
					0.800000011920929,
					0.800000011920929,
					0.800000011920929,
					0.8623853921890259
				],
				"metallicFactor":0,
				"roughnessFactor":0.054128438234329224
			}
		}
	],
	"meshes":[
		{
			"name":"Cube.011",
			"primitives":[
				{
					"attributes":{
						"POSITION":0,
						"NORMAL":1,
						"TEXCOORD_0":2
					},
					"indices":3,
					"material":0
				}
			]
		},
		{
			"name":"Cube.101",
			"primitives":[
				{
					"attributes":{
						"POSITION":4,
						"NORMAL":5,
						"TEXCOORD_0":6
					},
					"indices":7,
					"material":1
				}
			]
		},
		{
			"name":"Cube.107",
			"primitives":[
				{
					"attributes":{
						"POSITION":8,
						"NORMAL":9,
						"TEXCOORD_0":10
					},
					"indices":11,
					"material":2
				}
			]
		}
	],
	"textures":[
		{
			"sampler":0,
			"source":0
		},
		{
			"sampler":0,
			"source":0
		}
	],
	"images":[
		{
			"mimeType":"image/png",
			"name":"diamonPNG",
			"uri":"params.directory/diamonPNG.png"
		}
	],
	"accessors":[
		{
			"bufferView":0,
			"componentType":5126,
			"count":29380,
			"max":[
				0.037828076630830765,
				0.011891643516719341,
				0.037519488483667374
			],
			"min":[
				-0.03782022371888161,
				-0.011491622775793076,
				-0.037541404366493225
			],
			"type":"VEC3"
		},
		{
			"bufferView":1,
			"componentType":5126,
			"count":29380,
			"type":"VEC3"
		},
		{
			"bufferView":2,
			"componentType":5126,
			"count":29380,
			"type":"VEC2"
		},
		{
			"bufferView":3,
			"componentType":5123,
			"count":79620,
			"type":"SCALAR"
		},
		{
			"bufferView":4,
			"componentType":5126,
			"count":1760,
			"max":[
				0.038808345794677734,
				0.009685934521257877,
				0.03864842280745506
			],
			"min":[
				-0.03878481313586235,
				-0.009292910806834698,
				-0.03866976127028465
			],
			"type":"VEC3"
		},
		{
			"bufferView":5,
			"componentType":5126,
			"count":1760,
			"type":"VEC3"
		},
		{
			"bufferView":6,
			"componentType":5126,
			"count":1760,
			"type":"VEC2"
		},
		{
			"bufferView":7,
			"componentType":5123,
			"count":2760,
			"type":"SCALAR"
		},
		{
			"bufferView":8,
			"componentType":5126,
			"count":1760,
			"max":[
				0.038619447499513626,
				0.01019375678151846,
				0.03866494819521904
			],
			"min":[
				-0.03860846906900406,
				-0.009819514118134975,
				-0.03865979239344597
			],
			"type":"VEC3"
		},
		{
			"bufferView":9,
			"componentType":5126,
			"count":1760,
			"type":"VEC3"
		},
		{
			"bufferView":10,
			"componentType":5126,
			"count":1760,
			"type":"VEC2"
		},
		{
			"bufferView":11,
			"componentType":5123,
			"count":2760,
			"type":"SCALAR"
		}
	],
	"bufferViews":[
		{
			"buffer":0,
			"byteLength":352560,
			"byteOffset":0,
			"target":34962
		},
		{
			"buffer":0,
			"byteLength":352560,
			"byteOffset":352560,
			"target":34962
		},
		{
			"buffer":0,
			"byteLength":235040,
			"byteOffset":705120,
			"target":34962
		},
		{
			"buffer":0,
			"byteLength":159240,
			"byteOffset":940160,
			"target":34963
		},
		{
			"buffer":0,
			"byteLength":21120,
			"byteOffset":1099400,
			"target":34962
		},
		{
			"buffer":0,
			"byteLength":21120,
			"byteOffset":1120520,
			"target":34962
		},
		{
			"buffer":0,
			"byteLength":14080,
			"byteOffset":1141640,
			"target":34962
		},
		{
			"buffer":0,
			"byteLength":5520,
			"byteOffset":1155720,
			"target":34963
		},
		{
			"buffer":0,
			"byteLength":21120,
			"byteOffset":1161240,
			"target":34962
		},
		{
			"buffer":0,
			"byteLength":21120,
			"byteOffset":1182360,
			"target":34962
		},
		{
			"buffer":0,
			"byteLength":14080,
			"byteOffset":1203480,
			"target":34962
		},
		{
			"buffer":0,
			"byteLength":5520,
			"byteOffset":1217560,
			"target":34963
		}
	],
	"samplers":[
		{
			"magFilter":9729,
			"minFilter":9987
		}
	],
	"buffers":[
		{
			"byteLength":1223080,
			"uri":"ring.bin"
		}
	]
}
