{
	"asset":{
		"generator":"Khronos glTF Blender I/O v4.0.44",
		"version":"2.0"
	},
	"extensionsUsed":[
		"KHR_materials_clearcoat"
	],
	"scene":0,
	"scenes":[
		{
			"name":"Scene",
			"nodes":[
				0,
				1,
				2
			]
		}
	],
	"nodes":[
		{
			"mesh":0,
			"name":"COW",
			"rotation":[
				0,
				0,
				0.04623078554868698,
				0.9989308714866638
			],
			"translation":[
				1.9992570877075195,
				3.5258936882019043,
				0
			]
		},
		{
			"mesh":1,
			"name":"base",
			"scale":[
				3.3650074005126953,
				3.3650074005126953,
				3.3650074005126953
			],
			"translation":[
				0,
				0,
				-0.47149959206581116
			]
		},
		{
			"mesh":2,
			"name":"EYES",
			"rotation":[
				0.7071068286895752,
				0,
				0,
				0.7071068286895752
			]
		}
	],
	"materials":[
		{
			"doubleSided":true,
			"extensions":{
				"KHR_materials_clearcoat":{
					"clearcoatFactor":0.25,
					"clearcoatRoughnessFactor":0.11363635957241058
				}
			},
			"name":"Material.001",
			"pbrMetallicRoughness":{
				"metallicFactor":0.14909091591835022,
				"roughnessFactor":0.2781818211078644
			}
		},
		{
			"doubleSided":true,
			"extensions":{
				"KHR_materials_clearcoat":{
					"clearcoatFactor":1,
					"clearcoatRoughnessFactor":0.029999999329447746
				}
			},
			"name":"Material.004",
			"pbrMetallicRoughness":{
				"baseColorFactor":[
					0.2454186975955963,
					0.1635926067829132,
					0.1529776006937027,
					1
				],
				"metallicFactor":0,
				"roughnessFactor":0.1480836272239685
			}
		},
		{
			"doubleSided":true,
			"extensions":{
				"KHR_materials_clearcoat":{
					"clearcoatFactor":1,
					"clearcoatRoughnessFactor":0.029999999329447746
				}
			},
			"name":"Material.005",
			"pbrMetallicRoughness":{
				"baseColorFactor":[
					0.22428984940052032,
					0.4070870280265808,
					0.17515116930007935,
					1
				],
				"metallicFactor":0,
				"roughnessFactor":0.12020906805992126
			}
		},
		{
			"doubleSided":true,
			"extensions":{
				"KHR_materials_clearcoat":{
					"clearcoatFactor":1,
					"clearcoatRoughnessFactor":0.029999999329447746
				}
			},
			"name":"Material.002",
			"pbrMetallicRoughness":{
				"metallicFactor":0,
				"roughnessFactor":0.2090592384338379
			}
		},
		{
			"doubleSided":true,
			"extensions":{
				"KHR_materials_clearcoat":{
					"clearcoatFactor":1,
					"clearcoatRoughnessFactor":0.029999999329447746
				}
			},
			"name":"Material",
			"pbrMetallicRoughness":{
				"baseColorFactor":[
					0.011834013275802135,
					0.011834013275802135,
					0.011834013275802135,
					1
				],
				"metallicFactor":0,
				"roughnessFactor":0.0696864128112793
			}
		},
		{
			"doubleSided":true,
			"extensions":{
				"KHR_materials_clearcoat":{
					"clearcoatFactor":1,
					"clearcoatRoughnessFactor":0.029999999329447746
				}
			},
			"name":"Material.003",
			"pbrMetallicRoughness":{
				"baseColorFactor":[
					0.22300636768341064,
					0.09776762127876282,
					0.05819174647331238,
					1
				],
				"metallicFactor":0.33797910809516907,
				"roughnessFactor":0.12195122241973877
			}
		}
	],
	"meshes":[
		{
			"name":"Cube.002",
			"primitives":[
				{
					"attributes":{
						"COLOR_0":0,
						"POSITION":1,
						"NORMAL":2
					},
					"indices":3,
					"material":0
				}
			]
		},
		{
			"name":"Circle",
			"primitives":[
				{
					"attributes":{
						"POSITION":4,
						"NORMAL":5
					},
					"indices":6,
					"material":1
				},
				{
					"attributes":{
						"POSITION":7,
						"NORMAL":8
					},
					"indices":9,
					"material":2
				}
			]
		},
		{
			"name":"Sphere.001",
			"primitives":[
				{
					"attributes":{
						"POSITION":10,
						"NORMAL":11,
						"TEXCOORD_0":12
					},
					"indices":13,
					"material":3
				},
				{
					"attributes":{
						"POSITION":14,
						"NORMAL":15,
						"TEXCOORD_0":16
					},
					"indices":17,
					"material":4
				},
				{
					"attributes":{
						"POSITION":18,
						"NORMAL":19,
						"TEXCOORD_0":20
					},
					"indices":21,
					"material":5
				}
			]
		}
	],
	"accessors":[
		{
			"bufferView":0,
			"componentType":5123,
			"count":316238,
			"normalized":true,
			"type":"VEC4"
		},
		{
			"bufferView":1,
			"componentType":5126,
			"count":316238,
			"max":[
				1.2959154844284058,
				0.8514770865440369,
				1.4364063739776611
			],
			"min":[
				-5.873225688934326,
				-3.6160025596618652,
				-2.748899459838867
			],
			"type":"VEC3"
		},
		{
			"bufferView":2,
			"componentType":5126,
			"count":316238,
			"type":"VEC3"
		},
		{
			"bufferView":3,
			"componentType":5125,
			"count":1897452,
			"type":"SCALAR"
		},
		{
			"bufferView":4,
			"componentType":5126,
			"count":74854,
			"max":[
				1.8599330186843872,
				0.03532552346587181,
				1.1605980396270752
			],
			"min":[
				-1.859965443611145,
				-0.38740065693855286,
				-1.160611867904663
			],
			"type":"VEC3"
		},
		{
			"bufferView":5,
			"componentType":5126,
			"count":74854,
			"type":"VEC3"
		},
		{
			"bufferView":6,
			"componentType":5125,
			"count":402315,
			"type":"SCALAR"
		},
		{
			"bufferView":7,
			"componentType":5126,
			"count":30434,
			"max":[
				1.5627638101577759,
				0.16763770580291748,
				0.9532833695411682
			],
			"min":[
				-1.5709272623062134,
				0.007138527929782867,
				-0.9693898558616638
			],
			"type":"VEC3"
		},
		{
			"bufferView":8,
			"componentType":5126,
			"count":30434,
			"type":"VEC3"
		},
		{
			"bufferView":9,
			"componentType":5123,
			"count":179793,
			"type":"SCALAR"
		},
		{
			"bufferView":10,
			"componentType":5126,
			"count":922,
			"max":[
				2.7780847549438477,
				0.20764786005020142,
				-3.1088857650756836
			],
			"min":[
				1.25705087184906,
				-0.20764420926570892,
				-3.6330108642578125
			],
			"type":"VEC3"
		},
		{
			"bufferView":11,
			"componentType":5126,
			"count":922,
			"type":"VEC3"
		},
		{
			"bufferView":12,
			"componentType":5126,
			"count":922,
			"type":"VEC2"
		},
		{
			"bufferView":13,
			"componentType":5123,
			"count":4800,
			"type":"SCALAR"
		},
		{
			"bufferView":14,
			"componentType":5126,
			"count":196,
			"max":[
				2.7393341064453125,
				0.20191729068756104,
				-3.2697362899780273
			],
			"min":[
				1.2874267101287842,
				0.1034858450293541,
				-3.554598808288574
			],
			"type":"VEC3"
		},
		{
			"bufferView":15,
			"componentType":5126,
			"count":196,
			"type":"VEC3"
		},
		{
			"bufferView":16,
			"componentType":5126,
			"count":196,
			"type":"VEC2"
		},
		{
			"bufferView":17,
			"componentType":5123,
			"count":576,
			"type":"SCALAR"
		},
		{
			"bufferView":18,
			"componentType":5126,
			"count":132,
			"max":[
				2.759676933288574,
				0.20764786005020142,
				-3.231205701828003
			],
			"min":[
				1.269667625427246,
				0.06632424890995026,
				-3.5839266777038574
			],
			"type":"VEC3"
		},
		{
			"bufferView":19,
			"componentType":5126,
			"count":132,
			"type":"VEC3"
		},
		{
			"bufferView":20,
			"componentType":5126,
			"count":132,
			"type":"VEC2"
		},
		{
			"bufferView":21,
			"componentType":5123,
			"count":384,
			"type":"SCALAR"
		}
	],
	"bufferViews":[
		{
			"buffer":0,
			"byteLength":2529904,
			"byteOffset":0,
			"target":34962
		},
		{
			"buffer":0,
			"byteLength":3794856,
			"byteOffset":2529904,
			"target":34962
		},
		{
			"buffer":0,
			"byteLength":3794856,
			"byteOffset":6324760,
			"target":34962
		},
		{
			"buffer":0,
			"byteLength":7589808,
			"byteOffset":10119616,
			"target":34963
		},
		{
			"buffer":0,
			"byteLength":898248,
			"byteOffset":17709424,
			"target":34962
		},
		{
			"buffer":0,
			"byteLength":898248,
			"byteOffset":18607672,
			"target":34962
		},
		{
			"buffer":0,
			"byteLength":1609260,
			"byteOffset":19505920,
			"target":34963
		},
		{
			"buffer":0,
			"byteLength":365208,
			"byteOffset":21115180,
			"target":34962
		},
		{
			"buffer":0,
			"byteLength":365208,
			"byteOffset":21480388,
			"target":34962
		},
		{
			"buffer":0,
			"byteLength":359586,
			"byteOffset":21845596,
			"target":34963
		},
		{
			"buffer":0,
			"byteLength":11064,
			"byteOffset":22205184,
			"target":34962
		},
		{
			"buffer":0,
			"byteLength":11064,
			"byteOffset":22216248,
			"target":34962
		},
		{
			"buffer":0,
			"byteLength":7376,
			"byteOffset":22227312,
			"target":34962
		},
		{
			"buffer":0,
			"byteLength":9600,
			"byteOffset":22234688,
			"target":34963
		},
		{
			"buffer":0,
			"byteLength":2352,
			"byteOffset":22244288,
			"target":34962
		},
		{
			"buffer":0,
			"byteLength":2352,
			"byteOffset":22246640,
			"target":34962
		},
		{
			"buffer":0,
			"byteLength":1568,
			"byteOffset":22248992,
			"target":34962
		},
		{
			"buffer":0,
			"byteLength":1152,
			"byteOffset":22250560,
			"target":34963
		},
		{
			"buffer":0,
			"byteLength":1584,
			"byteOffset":22251712,
			"target":34962
		},
		{
			"buffer":0,
			"byteLength":1584,
			"byteOffset":22253296,
			"target":34962
		},
		{
			"buffer":0,
			"byteLength":1056,
			"byteOffset":22254880,
			"target":34962
		},
		{
			"buffer":0,
			"byteLength":768,
			"byteOffset":22255936,
			"target":34963
		}
	],
	"buffers":[
		{
			"byteLength":22256704,
			"uri":"COW.bin"
		}
	]
}
